<svg width="32" height="22" viewBox="0 0 32 22" fill="none" xmlns="http://www.w3.org/2000/svg">
<path d="M28.6575 13.2552C30.387 11.8204 31.3333 9.98521 31.3333 8.04989C31.3333 3.7121 26.5691 0.208496 20.7281 0.208496C16.7796 0.208496 13.2881 1.81014 11.4933 4.21261C11.2975 4.21261 11.1344 4.21261 10.9386 4.21261C5.09754 4.17924 0.333328 7.68285 0.333328 12.0206C0.333328 13.956 1.27964 15.7912 3.00912 17.226C2.71543 17.8933 2.29122 18.7609 1.76912 19.495C1.41017 20.0289 1.37754 20.6962 1.73649 21.2301C1.99754 21.6305 2.45438 21.8641 2.91122 21.8641C3.04175 21.8641 3.17228 21.8307 3.3028 21.7974C5.22807 21.2635 6.95754 20.3292 8.16491 19.5951C9.04596 19.7619 9.99228 19.862 10.9386 19.862C14.887 19.862 18.3786 18.227 20.1733 15.8579C20.3691 15.8579 20.5323 15.8579 20.7281 15.8579C21.6744 15.8579 22.5881 15.7578 23.5017 15.591C24.7091 16.3251 26.4712 17.2594 28.3639 17.7932C28.4944 17.8266 28.6249 17.86 28.7554 17.86C29.2123 17.86 29.6691 17.6264 29.9302 17.226C30.2891 16.6921 30.2565 16.0248 29.8975 15.5242C29.3754 14.7902 28.9512 13.9226 28.6575 13.2552ZM10.9386 18.3605C9.99228 18.3605 9.07859 18.2604 8.19754 18.0602C8.00175 18.0268 7.80596 18.0602 7.6428 18.1603C6.76175 18.7275 4.96701 19.7619 3.04175 20.2958C3.75964 19.228 4.31438 17.9601 4.57543 17.2594C4.70596 16.9257 4.60807 16.5586 4.31438 16.3584C2.6828 15.1572 1.80175 13.6223 1.80175 12.0206C1.80175 8.51704 5.8807 5.68079 10.906 5.68079C15.9312 5.68079 20.0102 8.51704 20.0102 12.0206C20.0102 15.5242 15.9639 18.3605 10.9386 18.3605ZM24.0239 14.1562C23.8933 14.0894 23.7628 14.0561 23.6323 14.0561C23.567 14.0561 23.5344 14.0561 23.4691 14.0894C22.686 14.2229 21.8702 14.323 21.0544 14.3564C21.3481 13.6223 21.5439 12.8548 21.5439 12.0206C21.5439 8.28346 18.0196 5.18027 13.2881 4.37945C14.9523 2.7778 17.6607 1.71004 20.7281 1.71004C25.7533 1.71004 29.8323 4.54629 29.8323 8.04989C29.8323 9.65154 28.9512 11.2198 27.3196 12.3877C27.0586 12.5879 26.9281 12.9549 27.0586 13.2886C27.3196 13.956 27.8744 15.2573 28.5923 16.3251C26.6996 15.7578 24.9049 14.7234 24.0239 14.1562Z" fill="#EA650F"/>
</svg>
