<svg width="26" height="22" viewBox="0 0 26 22" fill="none" xmlns="http://www.w3.org/2000/svg">
<path d="M4.24198 18.4118V18.9118V19.787C4.24198 20.6841 4.97247 21.4146 5.86956 21.4146H23.8667C24.7638 21.4146 25.4943 20.6841 25.4943 19.787V2.89692C25.4943 1.99984 24.7638 1.26935 23.8667 1.26935H21.4699V1.29171C21.4699 1.44367 21.4531 1.5902 21.4237 1.73006L21.4237 1.73009C21.2211 2.69388 20.3661 3.42089 19.3407 3.42089H18.9471C17.9219 3.42089 17.0671 2.69384 16.8642 1.73032C16.8642 1.73031 16.8642 1.73029 16.8642 1.73027L17.3535 1.62725C17.3307 1.51897 17.318 1.40693 17.318 1.29171L4.24198 18.4118ZM4.24198 18.4118H3.74198H1.77583C1.29572 18.4118 0.920426 18.2225 0.70874 17.9434L0.708677 17.9433C0.519119 17.6936 0.45239 17.3555 0.550805 17.0031C0.550812 17.0031 0.550819 17.0031 0.550827 17.003L4.22324 3.86459L4.24169 3.79856V3.72999V2.89692C4.24169 1.99984 4.97218 1.26935 5.86927 1.26935H6.32188M4.24198 18.4118L6.32188 1.26935M6.32188 1.26935V1.29171C6.32188 1.44388 6.33868 1.59049 6.36814 1.73032M6.32188 1.26935H16.818H10.9738V1.29171C10.9738 1.44367 10.957 1.5902 10.9276 1.73006L10.9276 1.73009C10.725 2.69388 9.87006 3.42089 8.84464 3.42089H8.45106C7.42586 3.42089 6.57105 2.69384 6.36814 1.73032M6.36814 1.73032C6.36814 1.73031 6.36813 1.73029 6.36813 1.73027L6.8574 1.62725L6.36814 1.73032ZM4.95795 18.4118H4.45795V18.9118V19.787C4.45795 20.5659 5.09069 21.1986 5.86956 21.1986H23.8664C24.6453 21.1986 25.2781 20.5659 25.2781 19.787V6.02764L24.2965 5.89305L21.1751 17.0613C21.175 17.0613 21.175 17.0613 21.175 17.0614C20.9733 17.7824 20.1283 18.4118 19.2391 18.4118H4.95795ZM4.62645 4.58282H4.24705L4.14491 4.94822L0.758975 17.0612C0.758959 17.0612 0.758943 17.0613 0.758927 17.0614C0.695022 17.2898 0.697409 17.5702 0.879725 17.8118L0.880905 17.8134C1.10523 18.1083 1.48137 18.1958 1.77583 18.1958H19.2391C19.6204 18.1958 19.9963 18.0577 20.2925 17.8612C20.5821 17.669 20.8631 17.3747 20.9669 17.0031C20.9669 17.0031 20.9669 17.0031 20.9669 17.003L24.2614 5.21743L24.4387 4.58282H23.7798H4.62645Z" fill="#EA650F" stroke="#EA650F"/>
</svg>
